HIERARCHY
ROOT Hips
{
	OFFSET	0.00	0.00	0.00
	CHANNELS 6 Xposition Yposition Zposition Zrotation Xrotation Yrotation
	JOINT Spine
	{
		OFFSET	 0.00	0.01	 0.00
		CHANNELS 3 Zrotation Xrotation Yrotation
		JOINT Spine1
		{
			OFFSET	 0.00	 2.45913012437421	 0.00
			CHANNELS 3 Zrotation Xrotation Yrotation
            JOINT Neck
            {
                OFFSET	 0.00	 2.48462964506057	 0.00
                CHANNELS 3 Zrotation Xrotation Yrotation
                JOINT Head
                {
                    OFFSET	 0.00	 0.927524780924562	 0.00
                    CHANNELS 3 Zrotation Xrotation Yrotation
                    End Site 
                    {
                        OFFSET	 0.00	 1.14999962169752	 0.00
                    }
                }
            }
			JOINT LeftShoulder
			{
				OFFSET	 0.00	 2.48462964506057	 0.00
				CHANNELS 3 Zrotation Xrotation Yrotation
				JOINT LeftUpArm
				{
					OFFSET	 0.00	 1.24881979654096	 0.00
					CHANNELS 3 Zrotation Xrotation Yrotation
					JOINT LeftForeArm
					{
						OFFSET	 0.00	2.59758046908119	 0.00
						CHANNELS 3 Zrotation Xrotation Yrotation
						JOINT LeftHand
						{
							OFFSET	 0.00	2.45542024364365	 0.00
							CHANNELS 3 Zrotation Xrotation Yrotation
							JOINT LeftHandThumb 
							{
								OFFSET	 0.00	0.00	 0.00
								CHANNELS 3 Zrotation Xrotation Yrotation
								End Site
								{
									OFFSET	 0.00	0.00	1.00000003353624
								}
							}
							JOINT L_Wrist_End 
							{
								OFFSET	 0.00	0.99999967115358	 0.00
								CHANNELS 3 Zrotation Xrotation Yrotation
								End Site 
								{
									OFFSET	 0.00	 0.00	 0.00
								}
							}
						}
					}
				}
			}
			JOINT RightShoulder
			{
				OFFSET	 0.00	 2.48462964506057	 0.00
				CHANNELS 3 Zrotation Xrotation Yrotation
				JOINT RightUpArm
				{
					OFFSET	 0.00	 1.24881979654096	 0.00
					CHANNELS 3 Zrotation Xrotation Yrotation
					JOINT RightForeArm
					{
						OFFSET	 0.00	2.59758046908119	 0.00
						CHANNELS 3 Zrotation Xrotation Yrotation
						JOINT RightHand
						{
							OFFSET	 0.00	2.45542024364365	 0.00
							CHANNELS 3 Zrotation Xrotation Yrotation
							JOINT RightHandThumb 
							{
								OFFSET	 0.00	0.00	 0.00
								CHANNELS 3 Zrotation Xrotation Yrotation
								End Site
								{
									OFFSET	 0.00	0.00	1.00000003353624
								}
							}
							JOINT R_Wrist_End 
							{
								OFFSET	 0.00	0.99999967115358	 0.00
								CHANNELS 3 Zrotation Xrotation Yrotation
								End Site 
								{
									OFFSET	 0.00	 0.00	 0.00
								}
							}
						}
					}
				}
			}
		}
	}
	JOINT LeftUpLeg
	{
		OFFSET	 1.2719394002717	 0.00	 0.00
		CHANNELS 3 Zrotation Xrotation Yrotation
		JOINT LeftLowLeg
		{
			OFFSET	 0.00	-4.3429100912261	 0.00
			CHANNELS 3 Zrotation Xrotation Yrotation
			JOINT LeftFoot
			{
				OFFSET	 0.00	-4.48767017425826	 0.00
				CHANNELS 3 Zrotation Xrotation Yrotation
				JOINT LeftToeBase
                {
                    OFFSET	 0.00	0.00	 1.51507020887566
                    CHANNELS 3 Zrotation Xrotation Yrotation
                    End Site 
                    {
                        OFFSET	 0.00	0.00	 0.75000010571191
                    }
                }
			}
		}
	}
	JOINT RightUpLeg
	{
		OFFSET	 -1.2719393604653	 0.00	 0.00
		CHANNELS 3 Zrotation Xrotation Yrotation
		JOINT RightLowLeg
		{
			OFFSET	 0.00	-4.3429100912261	 0.00
			CHANNELS 3 Zrotation Xrotation Yrotation
			JOINT RightFoot
			{
				OFFSET	 0.00	-4.48767017425826	 0.00
				CHANNELS 3 Zrotation Xrotation Yrotation
				JOINT RightToeBase
                {
                    OFFSET	 0.00	0.00	 1.51507020887566
                    CHANNELS 3 Zrotation Xrotation Yrotation
                    End Site 
                    {
                        OFFSET	 0.00	0.00	 0.749999965609858
                    }
                }   
			}
		}
	}
}
MOTION 
Frames:	16 
Frame Time: 0.02 
 2.5717599487304685 2.323650054931641 9.84135009765625 -140.458 84.6268 -576.715 3.43865 -5.64899 -2.73657 -0.247999 2.64649 -2.95564 -2.19282 42.4906 5.66257 14.3207 -48.3619 11.6224 -90.705055 -13.6627 -2.81435 -11.8261 3.29416 -32.2383 0.0 20.3537 0.0 32.1381 -5.60336 22.1216 0.0 0.0 0.0 0.0 0.0 0.0 98.69378 -10.411 -0.134881 6.83225 1.75154 37.0949 0.0 20.0144 0.0 -20.0076 -1.24954 -25.2637 0.0 0.0 0.0 0.0 0.0 0.0 4.98099 -1.72398 3.6093 0.0 6.79629 0.0 0.306122 7.59822 0.379734 0.0 -24.97843 0.0 3.66784 -0.241467 5.71751 0.0 7.14245 0.0 7.99347 9.72993 -7.84183 0.0 -27.6628 0.0 
  2.5719400024414063 2.3226699829101562 9.841209716796875 -140.447 84.6257 -576.717 3.4372 -5.65385 -2.73768 -0.240189 2.65035 -2.95644 -2.20516 42.4808 5.67317 14.316 -48.3711 11.6096 -90.711044 -13.665 -2.81506 -11.8482 3.27667 -32.4327 0.0 20.3703 0.0 32.0265 -5.43046 22.226 0.0 0.0 0.0 0.0 0.0 0.0 98.68895 -10.4082 -0.143924 6.82308 1.72098 37.0338 0.0 20.0491 0.0 -20.0336 -1.292 -25.1861 0.0 0.0 0.0 0.0 0.0 0.0 4.98196 -1.72624 3.59277 0.0 6.82313 0.0 0.284851 7.59839 0.395137 0.0 -25.173 0.0 3.66814 -0.235271 5.70437 0.0 7.14313 0.0 7.98819 9.723499 -7.83906 0.0 -27.6581 0.0 
  2.57322998046875 2.323070068359375 9.84093994140625 -140.66 84.593 -576.598 3.469 -5.63522 -2.66683 -0.255998 2.60291 -2.89031 -2.22511 42.4534 5.68886 14.3221 -48.404 11.5887 -90.7508 -13.6763 -2.8276 -11.818 3.30092 -32.4176 0.0 20.387 0.0 32.0507 -5.36982 22.2965 0.0 0.0 0.0 0.0 0.0 0.0 98.69554 -10.4354 -0.116849 6.82038 1.73142 37.1647 0.0 20.0553 0.0 -19.9776 -1.21306 -25.4739 0.0 0.0 0.0 0.0 0.0 0.0 4.97671 -1.74905 3.64077 0.0 6.83682 0.0 0.287766 7.57323 0.451349 0.0 -25.1782 0.0 3.66634 -0.318451 5.85358 0.0 7.21096 0.0 8.04204 9.697599 -7.86229 0.0 -27.6549 0.0 
  2.573389892578125 2.322079925537109 9.840900268554687 -140.907 84.5555 -576.355 3.47047 -5.67715 -2.66478 -0.259244 2.60384 -2.88826 -2.27602 42.4485 5.75924 14.3601 -48.4296 11.5741 -90.76714 -13.6923 -2.83698 -11.7861 3.28477 -32.3 0.0 20.3981 0.0 32.0522 -5.3954 22.3329 0.0 0.0 0.0 0.0 0.0 0.0 98.701706 -10.4459 -0.0948749 6.83132 1.75311 37.1867 0.0 20.0734 0.0 -19.9715 -1.23709 -25.4263 0.0 0.0 0.0 0.0 0.0 0.0 4.98029 -1.7895 3.63796 0.0 6.84356 0.0 0.297195 7.56485 0.456992 0.0 -25.1851 0.0 3.67032 -0.359857 5.85491 0.0 7.21817 0.0 8.03277 9.69452 -7.86385 0.0 -27.6507 0.0 
  2.57385009765625 2.319730072021484 9.84072998046875 -140.906 84.5576 -576.359 3.46081 -5.68262 -2.66084 -0.261092 2.61368 -2.88276 -2.25996 42.4479 5.74006 14.3556 -48.4356 11.5925 -90.7738 -13.7036 -2.83419 -11.7845 3.27412 -32.3528 0.0 20.3865 0.0 32.0649 -5.38007 22.3025 0.0 0.0 0.0 0.0 0.0 0.0 98.71039 -10.472 -0.0802 6.8383 1.80357 37.1804 0.0 20.0547 0.0 -19.9986 -1.26757 -25.4996 0.0 0.0 0.0 0.0 0.0 0.0 4.97525 -1.76645 3.60587 0.0 6.83349 0.0 0.282189 7.55258 0.487071 0.0 -25.1778 0.0 3.6693 -0.345181 5.87609 0.0 7.22121 0.0 8.02328 9.68192 -7.88369 0.0 -27.6809 0.0 
  2.5742401123046874 2.3183900451660158 9.84072021484375 -140.94 84.5547 -576.337 3.45061 -5.69067 -2.65198 -0.250072 2.61788 -2.87218 -2.26439 42.4517 5.74107 14.3451 -48.4311 11.5811 -90.8096 -13.7038 -2.84144 -11.7437 3.27074 -32.3712 0.0 20.3263 0.0 32.1078 -5.355 22.3349 0.0 0.0 0.0 0.0 0.0 0.0 98.7145 -10.4713 -0.0986348 6.83344 1.806 37.1869 0.0 20.0368 0.0 -19.9676 -1.26805 -25.5232 0.0 0.0 0.0 0.0 0.0 0.0 4.97272 -1.75461 3.58932 0.0 6.82401 0.0 0.278144 7.54919 0.504884 0.0 -25.147 0.0 3.66715 -0.342511 5.90702 0.0 7.22266 0.0 8.03261 9.67274 -7.89882 0.0 -27.6608 0.0 
  2.5746099853515627 2.3168099975585936 9.840560302734374 -140.909 84.5428 -576.381 3.43425 -5.69658 -2.63628 -0.214863 2.61708 -2.85359 -2.2611 42.4682 5.72997 14.334 -48.4358 11.5772 -90.81324 -13.727 -2.84298 -11.7894 3.3216 -32.3978 0.0 20.3192 0.0 32.1485 -5.36898 22.2922 0.0 0.0 0.0 0.0 0.0 0.0 98.70719 -10.454 -0.0811692 6.83318 1.77007 37.1567 0.0 19.9827 0.0 -19.7984 -1.13835 -24.8176 0.0 0.0 0.0 0.0 0.0 0.0 4.9808 -1.74949 3.60331 0.0 6.82622 0.0 0.269824 7.53109 0.503583 0.0 -25.156 0.0 3.67643 -0.348132 5.91382 0.0 7.2338 0.0 8.02488 9.67424 -7.89887 0.0 -27.6675 0.0 
  2.5754299926757813 2.315229949951172 9.840399780273437 -140.943 84.5324 -576.363 3.43678 -5.71839 -2.62178 -0.213097 2.63819 -2.83921 -2.27653 42.4667 5.74456 14.3205 -48.4174 11.5493 -90.8167 -13.7252 -2.81732 -11.8023 3.3269 -32.3712 0.0 20.3079 0.0 32.1004 -5.35122 22.386 0.0 0.0 0.0 0.0 0.0 0.0 98.70987 -10.428 -0.0877843 6.85318 1.74048 37.1915 0.0 19.9951 0.0 -19.7432 -1.15549 -24.8061 0.0 0.0 0.0 0.0 0.0 0.0 4.97993 -1.74405 3.61399 0.0 6.82309 0.0 0.273854 7.5165 0.511241 0.0 -25.145199 0.0 3.67656 -0.355915 5.93265 0.0 7.24423 0.0 8.03519 9.66728 -7.89984 0.0 -27.6978 0.0 
  2.576180114746094 2.3142599487304687 9.840269775390626 -140.942 84.5251 -576.366 3.44426 -5.7306 -2.61867 -0.216894 2.65578 -2.83717 -2.30613 42.4636 5.78355 14.3206 -48.4074 11.5295 -90.84648 -13.7183 -2.80682 -11.7427 3.3066 -32.2805 0.0 20.239 0.0 32.0256 -5.28744 22.4609 0.0 0.0 0.0 0.0 0.0 0.0 98.70494 -10.4281 -0.0560213 6.89253 1.75129 37.2025 0.0 20.0339 0.0 -19.8219 -1.29214 -25.4349 0.0 0.0 0.0 0.0 0.0 0.0 4.98098 -1.74369 3.61054 0.0 6.82492 0.0 0.267281 7.5049 0.508796 0.0 -25.1366 0.0 3.67699 -0.359443 5.9305 0.0 7.25238 0.0 8.03769 9.65921 -7.89433 0.0 -27.6826 0.0 
  2.5781298828125 2.3118299865722656 9.84010986328125 -140.922 84.5081 -576.371 3.46444 -5.76579 -2.61748 -0.20862 2.70062 -2.83882 -2.40086 42.4756 5.88826 14.3167 -48.438 11.4649 -90.944496 -13.6733 -2.77414 -11.6136 3.21448 -32.2142 0.0 20.1997 0.0 31.6153 -5.15401 21.9174 0.0 0.0 0.0 0.0 0.0 0.0 98.70015 -10.4315 -0.0356333 6.92658 1.77983 37.2711 0.0 20.0442 0.0 -19.8747 -1.30561 -25.4682 0.0 0.0 0.0 0.0 0.0 0.0 4.98401 -1.73912 3.62821 0.0 6.81426 0.0 0.267532 7.49425 0.472601 0.0 -25.132301 0.0 3.67629 -0.354251 5.88285 0.0 7.25046 0.0 8.01494 9.659269 -7.8715 0.0 -27.688301 0.0 
  2.5792800903320314 2.310879974365234 9.840029907226562 -140.904 84.5036 -576.396 3.47412 -5.77602 -2.61086 -0.200723 2.71873 -2.83353 -2.41327 42.481 5.8903 14.2773 -48.4413 11.4467 -90.96876 -13.679 -2.79927 -11.6141 3.20628 -32.2219 0.0 20.211 0.0 31.628 -5.1533 21.9044 0.0 0.0 0.0 0.0 0.0 0.0 98.70962 -10.4147 -0.0512701 6.90465 1.77285 37.2393 0.0 20.0294 0.0 -19.9508 -1.31083 -25.6069 0.0 0.0 0.0 0.0 0.0 0.0 4.98493 -1.72056 3.68442 0.0 6.78669 0.0 0.284039 7.49773 0.423387 0.0 -25.137901 0.0 3.67454 -0.355831 5.88571 0.0 7.25775 0.0 8.01245 9.66028 -7.87088 0.0 -27.7014 0.0 
  2.580660095214844 2.309620056152344 9.839920043945312 -140.787 84.4933 -576.537 3.50551 -5.77873 -2.59396 -0.195239 2.73269 -2.82139 -2.45235 42.4807 5.92529 14.2194 -48.4424 11.4191 -91.01015 -13.7008 -2.79279 -11.5944 3.21056 -32.2113 0.0 20.2263 0.0 31.6169 -5.12513 21.9548 0.0 0.0 0.0 0.0 0.0 0.0 98.7267 -10.4013 -0.0739225 6.85316 1.77952 37.1705 0.0 19.9944 0.0 -19.8528 -1.31724 -25.3376 0.0 0.0 0.0 0.0 0.0 0.0 4.99822 -1.6935 3.73433 0.0 6.76046 0.0 0.271273 7.48558 0.38297 0.0 -25.1389 0.0 3.68551 -0.37087 5.87298 0.0 7.29848 0.0 8.00686 9.64808 -7.84863 0.0 -27.6821 0.0 
  2.5824200439453127 2.308890075683594 9.840029907226562 -140.692 84.4756 -576.679 3.55844 -5.7805 -2.56572 -0.196195 2.75003 -2.80126 -2.5264 42.4842 6.00183 14.1719 -48.4748 11.3833 -91.08373 -13.7016 -2.79329 -11.5301 3.17828 -32.1941 0.0 20.2276 0.0 31.5875 -5.1077 21.9516 0.0 0.0 0.0 0.0 0.0 0.0 98.75699 -10.3999 -0.0741078 6.78439 1.80417 37.1611 0.0 19.9616 0.0 -19.6166 -1.18449 -24.4986 0.0 0.0 0.0 0.0 0.0 0.0 5.0199 -1.67255 3.87658 0.0 6.73558 0.0 0.270086 7.48244 0.258821 0.0 -25.1546 0.0 3.69684 -0.405803 5.80314 0.0 7.34869 0.0 7.94174 9.66634 -7.7807 0.0 -27.687801 0.0 
  2.5837799072265626 2.308990020751953 9.840260009765625 -140.58 84.4587 -576.855 3.63768 -5.76112 -2.52108 -0.225775 2.75974 -2.76905 -2.58673 42.4778 6.06563 14.1213 -48.4874 11.3523 -91.131 -13.6967 -2.77734 -11.4825 3.13974 -32.2022 0.0 20.2177 0.0 31.6173 -5.08597 21.9969 0.0 0.0 0.0 0.0 0.0 0.0 98.78061 -10.4131 -0.0536655 6.77278 1.83751 37.2198 0.0 19.9945 0.0 -19.6002 -1.08011 -24.4862 0.0 0.0 0.0 0.0 0.0 0.0 5.05494 -1.6569 4.06741 0.0 6.72096 0.0 0.223492 7.48332 0.0725684 0.0 -25.182201 0.0 3.71582 -0.478185 5.87254 0.0 7.46292 0.0 7.96286 9.65094 -7.78635 0.0 -27.6986 0.0 
  2.5842599487304687 2.310249938964844 9.840800170898438 -140.434 84.4484 -577.031 3.70099 -5.7103 -2.48908 -0.240428 2.73423 -2.74717 -2.60471 42.4867 6.07457 14.0845 -48.4913 11.3306 -91.15153 -13.6763 -2.78276 -11.4892 3.08027 -32.214 0.0 20.2627 0.0 31.6304 -5.11436 21.9902 0.0 0.0 0.0 0.0 0.0 0.0 98.79237 -10.4283 -0.0402156 6.76059 1.85481 37.1758 0.0 20.0418 0.0 -19.7554 -1.26689 -25.4055 0.0 0.0 0.0 0.0 0.0 0.0 5.09316 -1.66084 4.144 0.0 6.72753 0.0 0.169981 7.49662 -0.0530366 0.0 -25.179 0.0 3.73709 -0.544684 5.84401 0.0 7.56828 0.0 7.91601 9.66076 -7.75865 0.0 -27.7164 0.0 
  2.5831201171875 2.3117799377441406 9.841680297851562 -140.188 84.439 -577.25 3.74311 -5.65926 -2.48697 -0.220491 2.7324 -2.75176 -2.61741 42.4785 6.07843 14.0384 -48.4984 11.3194 -91.18189 -13.662 -2.80749 -11.505 3.01732 -32.2341 0.0 20.3271 0.0 31.627 -5.05173 21.9758 0.0 0.0 0.0 0.0 0.0 0.0 98.79631 -10.4217 -0.0233855 6.73768 1.84323 37.1401 0.0 20.0317 0.0 -19.5612 -1.15169 -24.523 0.0 0.0 0.0 0.0 0.0 0.0 5.14794 -1.71177 4.10991 0.0 6.80675 0.0 0.109717 7.49515 -0.129629 0.0 -25.1747 0.0 3.77375 -0.60113 5.72079 0.0 7.66595 0.0 7.86197 9.698339 -7.70348 0.0 -27.7805 0.0 
